# xmcd
#
# Track frame offsets:
#	150
#	18450
#	30000
#	41100
#	54525
#	65025
#	76950
#	86475
#	99825
#	114075
#	126525
#	141675
#	152400
#	160650
#	169875
#	181800
#
# Disc length: 2556 seconds
#
# Revision: 3
# Processed by: cddbd v1.5.2PL0 Copyright (c) Steve Scherf et al.
# Submitted via: audiograbber 1.83.01
#
DISCID=c709fa10
DTITLE=Various Artist - Country And Western Classics Vol. 2 [CD2]
DYEAR=1985
DGENRE=Country
TTITLE0=Kris Kristofferson - Me And Bobby Mcgee
TTITLE1=Sammi Smith - Help Me Make It Through The Night
TTITLE2=Johnny Horton - Jim Bridger
TTITLE3=Dean Martin - Rio Bravo
TTITLE4=Hank Thompson - Wake Up Irene
TTITLE5=Jack Greene - There Goes My Everything
TTITLE6=Lynn Anderson - Snowbird
TTITLE7=Gene Pitney - 24 Hours From Tulsa
TTITLE8=Bellamy Brothers - Let Your Love Flow
TTITLE9=Jack and Misty - Tennessee Birdwalk
TTITLE10=Sammy Davis Jr. - Come Sundown
TTITLE11=Tammy Wynette - Singing My Song
TTITLE12=Roger Miller - Dang Me
TTITLE13=Al Caiola - The Magnificent Seven
TTITLE14=Skeeter Davis - End Of The World
TTITLE15=Leroy Van Dyke - Walk On By
EXTD=Bellaphon, Germany
EXTT0=
EXTT1=
EXTT2=
EXTT3=
EXTT4=
EXTT5=
EXTT6=
EXTT7=
EXTT8=
EXTT9=
EXTT10=
EXTT11=
EXTT12=
EXTT13=
EXTT14=
EXTT15=
PLAYORDER=
